HIERARCHY
ROOT Hips
{
 OFFSET 0.000000 0.000000 0.000000
 CHANNELS 6 Xposition Yposition Zposition Yrotation Xrotation Zrotation
 JOINT Chest
 {
  OFFSET 0.000000 13.173100 -0.061900
  CHANNELS 3 Yrotation Xrotation Zrotation
  JOINT Chest2
  {
   OFFSET 0.000000 8.040800 0.126200
   CHANNELS 3 Yrotation Xrotation Zrotation
   JOINT Chest3
   {
    OFFSET 0.000000 7.994400 0.000000
    CHANNELS 3 Yrotation Xrotation Zrotation
    JOINT Chest4
    {
     OFFSET 0.000000 7.986200 0.000000
     CHANNELS 3 Yrotation Xrotation Zrotation
     JOINT Neck
     {
      OFFSET 0.000000 12.259400 0.000000
      CHANNELS 3 Yrotation Xrotation Zrotation
      JOINT Head
      {
       OFFSET 0.000000 7.518700 0.267100
       CHANNELS 3 Yrotation Xrotation Zrotation
       End Site
       {
        OFFSET 0.000000 13.617700 0.141000
       }
      }
     }
     JOINT RightCollar
     {
      OFFSET -2.983800 8.314300 0.000000
      CHANNELS 3 Yrotation Xrotation Zrotation
      JOINT RightShoulder
      {
       OFFSET -16.133400 0.000000 0.000000
       CHANNELS 3 Yrotation Xrotation Zrotation
       JOINT RightElbow
       {
        OFFSET 0.000000 -29.822100 0.000000
        CHANNELS 3 Yrotation Xrotation Zrotation
        JOINT RightWrist
        {
         OFFSET 0.000000 -24.437700 0.010900
         CHANNELS 3 Yrotation Xrotation Zrotation
         End Site
         {
          OFFSET 0.000000 -18.312300 0.000000
         }
        }
       }
      }
     }
     JOINT LeftCollar
     {
      OFFSET 2.983800 8.314300 0.000000
      CHANNELS 3 Yrotation Xrotation Zrotation
      JOINT LeftShoulder
      {
       OFFSET 16.133400 0.000000 0.000000
       CHANNELS 3 Yrotation Xrotation Zrotation
       JOINT LeftElbow
       {
        OFFSET 0.000000 -29.822100 0.000000
        CHANNELS 3 Yrotation Xrotation Zrotation
        JOINT LeftWrist
        {
         OFFSET 0.000000 -24.437700 0.010900
         CHANNELS 3 Yrotation Xrotation Zrotation
         End Site
         {
          OFFSET 0.000000 -18.312300 0.000000
         }
        }
       }
      }
     }
    }
   }
  }
 }
 JOINT RightHip
 {
  OFFSET -11.206700 0.306200 0.030900
  CHANNELS 3 Yrotation Xrotation Zrotation
  JOINT RightKnee
  {
   OFFSET 0.000000 -57.334900 0.009400
   CHANNELS 3 Yrotation Xrotation Zrotation
   JOINT RightAnkle
   {
    OFFSET 0.000000 -43.376200 0.036600
    CHANNELS 3 Yrotation Xrotation Zrotation
    JOINT RightToe
    {
     OFFSET 0.000000 -10.035500 18.363100
     CHANNELS 3 Yrotation Xrotation Zrotation
     End Site
     {
      OFFSET 0.000000 -1.618500 7.239000
     }
    }
   }
  }
 }
 JOINT LeftHip
 {
  OFFSET 11.206700 0.306200 0.030900
  CHANNELS 3 Yrotation Xrotation Zrotation
  JOINT LeftKnee
  {
   OFFSET 0.000000 -57.334900 0.009400
   CHANNELS 3 Yrotation Xrotation Zrotation
   JOINT LeftAnkle
   {
    OFFSET 0.000000 -43.376200 0.036600
    CHANNELS 3 Yrotation Xrotation Zrotation
    JOINT LeftToe
    {
     OFFSET 0.000000 -10.035500 18.363100
     CHANNELS 3 Yrotation Xrotation Zrotation
     End Site
     {
      OFFSET 0.000000 -1.618500 7.239000
     }
    }
   }
  }
 }
}
MOTION
Frames: 7
Frame Time: 0.008333
0.000000 110.232800 0.000000 0.000000 -5.767877 0.000000 0.000000 11.653817 0.000000 0.000000 -5.885947 0.000000 0.000000 -0.000000 0.000000 0.000000 -0.000000 0.000000 0.000000 12.528835 0.000000 0.000000 0.711642 0.000000 0.000000 -0.000000 0.000000 0.000000 0.000000 -90.000000 0.000000 -2.309062 0.000000 0.000000 2.309062 0.000000 0.000000 -0.000000 0.000000 0.000000 -0.000000 90.000000 0.000000 -2.309062 0.000000 0.000000 2.309062 0.000000 0.000000 8.520406 0.000000 0.000000 1.905762 0.000000 -0.000000 -4.658285 0.000000 0.000000 -0.000000 0.000000 0.000000 8.520406 0.000000 0.000000 1.905762 0.000000 -0.000000 -4.658285 0.000000 0.000000 -0.000000 0.000000
-97.701982 64.439290 85.861734 172.419572 -36.398609 -2.546903 3.118286 20.089723 2.105092 0.374435 2.624978 0.381911 0.614308 4.243697 0.607359 2.878412 17.324757 2.858904 0.746445 16.881299 0.892524 1.121287 -4.482273 1.366847 -3.700749 1.070173 -3.463810 -4.223217 -1.676746 4.576015 128.072542 -79.657300 -117.121519 4.505529 -1.243135 0.101905 -2.471227 0.714305 0.491585 7.820821 -2.408224 1.729962 -167.715350 -82.500153 151.368445 -8.584364 -5.618224 10.183762 -3.695558 -44.799621 3.541157 -88.260531 86.785903 -83.726624 1.041296 -7.697256 -3.165841 0.350415 -0.592163 0.213270 -3.990097 -41.318663 4.947314 75.430488 83.082771 65.707795 -4.656866 -12.081632 6.612435 0.487808 1.111598 0.240882
-97.697404 64.436589 85.860585 172.422915 -36.391810 -2.527591 3.117020 20.132838 2.113828 0.371296 2.606379 0.366749 0.609211 4.224033 0.596887 2.885322 17.372512 2.862146 0.777512 16.791437 0.871510 1.160454 -4.634083 1.330174 -3.704433 1.078748 -3.455451 -4.235896 -1.671344 4.550629 128.324569 -79.678178 -117.355355 4.459597 -1.314959 0.084686 -2.465796 0.704588 0.487539 7.893201 -2.318400 1.632720 -171.703363 -82.837280 155.350410 -8.382993 -5.699805 10.511101 -3.667409 -44.814030 3.516040 -88.506555 86.781260 -83.971470 1.035094 -7.703790 -3.162770 0.359612 -0.596108 0.209334 -4.016368 -41.322381 4.941193 75.447285 83.065694 65.723311 -4.689351 -12.083647 6.572664 0.517330 1.122258 0.261290
-97.694478 64.436958 85.854393 172.438890 -36.407598 -2.501331 3.098598 20.174023 2.092432 0.371652 2.612583 0.366150 0.609531 4.234353 0.596858 2.878879 17.362371 2.850293 0.807773 16.728082 0.853022 1.194057 -4.783730 1.296113 -3.703419 1.114720 -3.441671 -4.252266 -1.669917 4.521407 128.545015 -79.691498 -117.558158 4.401066 -1.393109 0.061211 -2.447247 0.798024 0.477601 7.918121 -2.312718 1.539017 -175.136361 -83.094982 158.820499 -8.207600 -5.829853 10.854592 -3.633671 -44.804412 3.472303 -88.943154 86.772621 -84.417141 1.033568 -7.725103 -3.147868 0.356008 -0.595690 0.208091 -4.037448 -41.302744 4.916989 75.454236 83.057888 65.707582 -4.692523 -12.079012 6.562776 0.521419 1.121047 0.266898
-97.689738 64.435664 85.850860 172.441519 -36.409991 -2.474740 3.091504 20.194964 2.074422 0.373643 2.622826 0.369371 0.615136 4.274059 0.604200 2.869657 17.361437 2.835669 0.821365 16.635995 0.834630 1.229092 -4.928229 1.258429 -3.700742 1.113394 -3.425992 -4.273902 -1.671957 4.490629 128.723286 -79.692952 -117.721488 4.372566 -1.472592 0.030122 -2.436509 0.856065 0.460305 7.910296 -2.316879 1.455218 -177.654337 -83.274560 161.421877 -8.070996 -5.982650 11.179081 -3.594722 -44.812616 3.435437 -89.310403 86.765463 -84.780447 1.026765 -7.729216 -3.148226 0.357343 -0.604154 0.212280 -4.050169 -41.295424 4.899301 75.450468 83.049643 65.684798 -4.691352 -12.083021 6.562992 0.514652 1.127110 0.261398
-97.684748 64.434919 85.847125 172.443285 -36.414397 -2.449499 3.082541 20.206379 2.050782 0.377845 2.639675 0.380544 0.610160 4.260904 0.592655 2.872037 17.407334 2.842611 0.831190 16.554055 0.815437 1.256190 -5.055784 1.221516 -3.691527 1.127210 -3.412889 -4.295873 -1.682070 4.461316 128.860977 -79.684173 -117.848554 4.352956 -1.557441 -0.012732 -2.433971 0.850317 0.447225 7.888290 -2.253210 1.381240 -179.105085 -83.380437 162.993737 -7.974575 -6.126160 11.455933 -3.556871 -44.819229 3.401948 -89.663317 86.764329 -85.129764 1.013219 -7.729675 -3.149275 0.360316 -0.615047 0.215067 -4.059134 -41.286531 4.872951 75.485217 83.024204 65.726032 -4.714358 -12.089645 6.533055 0.534317 1.136503 0.267925
-97.683309 64.433734 85.844150 172.438930 -36.414551 -2.408629 3.080765 20.227749 2.027772 0.373166 2.638192 0.381238 0.612851 4.272554 0.590511 2.860915 17.414247 2.836832 0.836452 16.497337 0.798995 1.271523 -5.178925 1.182716 -3.684551 1.127756 -3.410691 -4.305216 -1.664710 4.441084 128.998484 -79.668672 -117.982439 4.338195 -1.632847 -0.065394 -2.429722 0.944454 0.426787 7.857774 -2.275202 1.311726 -179.562826 -83.423585 163.594174 -7.923302 -6.249137 11.665442 -3.506205 -44.830918 3.351726 -90.017964 86.759633 -85.483076 1.005187 -7.736189 -3.156583 0.366961 -0.619132 0.222722 -4.070195 -41.278488 4.833448 75.490459 82.994756 65.706833 -4.689179 -12.099639 6.535640 0.507422 1.147969 0.256536
